<svg version="1.1" id="Layer_1" xmlns="http://www.w3.org/2000/svg" xmlns:xlink="http://www.w3.org/1999/xlink" x="0px" y="0px"
viewBox="0 105.3 500 289" enable-background="new 0 105.3 500 289" xml:space="preserve">
<g id="mac">
<g>
<path fill="#FFFFFF" d="M498,377.4h-46c0.5-1.5,0.8-3.2,0.8-4.9V121.7c0-8.3-6.8-15.1-15.1-15.1H62.3c-8.3,0-15.1,6.8-15.1,15.1
v250.8c0,1.7,0.3,3.4,0.8,4.9H2c-0.4,0-0.8,0.4-0.8,0.8v7.7c0,0.3,0,0.9,0.6,1.3c0.2,0.1,0.3,0.2,0.4,0.3c3.4,2.4,12,5.9,21.7,5.9
h452.2c9.6,0,18.2-3.5,21.7-5.9c0.2-0.2,0.4-0.3,0.5-0.4c0.4-0.4,0.4-0.9,0.4-1.1v-7.8C498.8,377.8,498.5,377.4,498,377.4z
M439,360.4H61V124h378V360.4z"/>
<path fill="#CCCCCC" d="M498,377.4h-46c0.5-1.5,0.8-3.2,0.8-4.9V121.7c0-8.3-6.8-15.1-15.1-15.1H62.3c-8.3,0-15.1,6.8-15.1,15.1
v250.8c0,1.7,0.3,3.4,0.8,4.9H2c-0.4,0-0.8,0.4-0.8,0.8v7.7c0,0.3,0,0.9,0.6,1.3c0.2,0.1,0.3,0.2,0.4,0.3l0,0
c3.4,2.4,12,5.9,21.7,5.9h452.2c9.6,0,18.2-3.5,21.7-5.9l0,0c0.2-0.2,0.4-0.3,0.5-0.4c0.4-0.4,0.4-0.9,0.4-1.1v-7.8
C498.8,377.8,498.5,377.4,498,377.4z M48.3,372.5V121.7c0-7.7,6.3-14,14-14h375.4c7.7,0,14,6.3,14,14v250.8c0,1.7-0.3,3.4-0.9,4.9
h-41.1l-0.1-0.2l-1.2-5.4h36.6c2.9,0,5.2-2.4,5.2-5.2v-24.4v-1.3V121.5c0-6.9-5.6-12.5-12.5-12.5H62.1
c-6.8,0.1-12.4,5.6-12.4,12.5v219.2v1.3v24.4c0,2.9,2.4,5.2,5.2,5.2h35.4l-1.2,5.4l-0.1,0.2H49.1
C48.6,375.9,48.3,374.3,48.3,372.5z M214.8,377.4h-51.5H147H90.1l1.3-5.7H147h16.3h244.2l1.3,5.7H285.2H214.8z M284.1,378.5
c-0.3,1.7-2,4.5-4.9,4.5h-58.4c-2.9,0-4.6-2.9-4.9-4.5H284.1z M54.9,370.7c-2.3,0-4.2-1.9-4.2-4.2v-24.4v-1.3V121.5
c0-6.3,5.1-11.4,11.4-11.4H438c6.3,0,11.4,5.1,11.4,11.4v219.2v1.3v24.4c0,2.3-1.9,4.2-4.2,4.2L54.9,370.7L54.9,370.7z M2.2,378.5
h86.6h1.3H147h16.3h51.5c0.3,2.2,2.4,5.6,6,5.6h58.4c3.6,0,5.7-3.4,6-5.6h123.6h1.3h87.7v7.5c0,0.1,0,0.2-0.1,0.3
c-0.1,0.1-0.3,0.2-0.4,0.3H2.7c-0.1-0.1-0.2-0.1-0.3-0.2c-0.1-0.1-0.2-0.2-0.2-0.5V378.5z M476.1,392.3H23.9
c-8.2,0-15.5-2.6-19.5-4.8h491.2C491.7,389.7,484.3,392.3,476.1,392.3z"/>
<path fill="#CCCCCC" d="M439,122.8H61c-0.7,0-1.3,0.6-1.3,1.3v236.4c0,0.7,0.6,1.3,1.3,1.3h378c0.7,0,1.3-0.6,1.3-1.3V124
C440.3,123.3,439.7,122.8,439,122.8z M439,360.5H61V124h378L439,360.5L439,360.5z"/>
<path fill="#CCCCCC" d="M250.1,119.2c1.2,0,2.1-1,2.1-2.1c0-1.2-1-2.1-2.1-2.1c-1.2,0-2.1,1-2.1,2.1
C248,118.3,248.9,119.2,250.1,119.2z M250.1,116.1c0.6,0,1.1,0.5,1.1,1.1c0,0.6-0.5,1.1-1.1,1.1s-1.1-0.5-1.1-1.1
C249,116.6,249.5,116.1,250.1,116.1z"/>
<path fill="#CCCCCC" d="M172.6,391.7L172.6,391.7c0.1,0,0.2,0,0.3,0c1.4-0.1,2.3-0.3,2.5-0.8c0.1-0.3,0.1-0.5-0.1-0.7
c-0.6-0.7-2.7-0.7-3.2-0.7c-0.1,0-0.2,0-0.3,0c-1.4,0.1-2.3,0.3-2.5,0.8c-0.1,0.3-0.1,0.5,0.1,0.7
C170.1,391.7,172.2,391.7,172.6,391.7z"/>
<path fill="#CCCCCC" d="M326.5,391.7c0.1,0,0.2,0,0.3,0c0.4,0,2.6-0.1,3.2-0.7c0.2-0.2,0.2-0.5,0.1-0.7c-0.2-0.5-1.1-0.7-2.5-0.8
c-0.1,0-0.2,0-0.3,0c-0.4,0-2.6,0.1-3.2,0.7c-0.2,0.2-0.2,0.5-0.1,0.7C324.2,391.4,325,391.7,326.5,391.7z"/>
</g>
</g>
</svg>