<svg version="1.1" id="Layer_1" xmlns="http://www.w3.org/2000/svg" xmlns:xlink="http://www.w3.org/1999/xlink" x="0px" y="0px"
viewBox="0 0 723 580" enable-background="new 0 0 723 580" xml:space="preserve">
<g id="imac_1_">
<path fill="#FFFFFF" d="M699.3,2.2H23.7c-11.6,0-21,9.4-21,21v408.2v1.4v44c0,11.6,9.4,21,21,21h255c-0.6,8.9-1.6,21-2.9,32.6
c-3.6,31.3-6.4,34-6.9,34.2c-2.6,1.1-10.4,2.3-17.3,3.4c-12.4,1.9-14.1,2.3-14.1,3.5v1.8c0,0.4,0,0.8,2.3,1.1c0,0.6,0,1.5,0,2.1
c0,1.3,39.5,1.6,75.2,1.6c18.1,0,35.2-0.1,45.8-0.1c10.6,0,27.7,0.1,45.8,0.1c35.7,0,75.2-0.2,75.2-1.6c0-0.6,0-1.5,0-2.1
c2.3-0.3,2.3-0.7,2.3-1.1v-1.8c0-1.2-1.7-1.6-14.1-3.5c-6.9-1.1-14.7-2.3-17.3-3.4c-0.5-0.2-3.3-3-7-34.2
c-1.3-11.5-2.4-23.7-2.9-32.6h256.5c11.6,0,21-9.4,21-21v-44v-1.4V23.1C720.3,11.6,710.9,2.2,699.3,2.2z"/>
<path fill="#CCCCCC" d="M699.3,2.2H23.7c-11.6,0-21,9.4-21,21v408.2v1.4v44c0,11.6,9.4,21,21,21h255c-0.6,8.9-1.6,21-2.9,32.6
c-3.6,31.3-6.4,34-6.9,34.2c-2.6,1.1-10.4,2.3-17.3,3.4c-12.4,1.9-14.1,2.3-14.1,3.5v1.8c0,0.4,0,0.8,2.3,1.1c0,0.6,0,1.5,0,2.1
c0,1.3,39.5,1.6,75.2,1.6c18.1,0,35.2-0.1,45.8-0.1c10.6,0,27.7,0.1,45.8,0.1c35.7,0,75.2-0.2,75.2-1.6c0-0.6,0-1.5,0-2.1
c2.3-0.3,2.3-0.7,2.3-1.1v-1.8c0-1.2-1.7-1.6-14.1-3.5c-6.9-1.1-14.7-2.3-17.3-3.4c-0.5-0.2-3.3-3-7-34.2
c-1.3-11.5-2.4-23.7-2.9-32.6h256.5c11.6,0,21-9.4,21-21v-44v-1.4V23.1C720.3,11.6,710.9,2.2,699.3,2.2z M480.7,575.6
c-1.5,0.3-7,0.7-24.9,1c-12,0.2-28.1,0.3-49.3,0.3c-11,0-21.4,0-30.6,0c-5.9,0-11,0-15.2,0c-4.2,0-9.3,0-15.2,0
c-9.2,0-19.6,0-30.6,0c-21.2,0-37.3-0.1-49.3-0.3c-17.9-0.3-23.3-0.7-24.9-1v-1.3c3.2,0.3,9.5,0.6,22,0.7
c12.4,0.2,29.3,0.3,51.9,0.3c11.1,0,21.7,0,31,0c5.9,0,11,0,15.2,0c4.1,0,9.3,0,15.2,0c9.3,0,19.9,0,31,0c22.5,0,39.5-0.1,51.9-0.3
c12.4-0.2,18.8-0.4,22-0.7V575.6z M444.4,530.4c3.9,33.6,6.8,34.9,7.8,35.3c2.7,1.2,10.3,2.4,17.7,3.5c5.2,0.8,11.7,1.8,12.9,2.4
v1.1c-3.3,0.8-28.8,1.3-75.8,1.3c-11.1,0-21.7,0-31,0c-5.9,0-11,0-15.2,0c-4.1,0-9.3,0-15.2,0c-9.3,0-19.9,0-31,0
c-47,0-72.5-0.4-75.8-1.3v-1.1c1.2-0.6,7.7-1.6,12.9-2.4c7.3-1.1,14.9-2.3,17.7-3.5c1-0.4,3.9-1.7,7.8-35.3
c1.3-11.6,2.4-23.8,2.9-32.7h161.4C442,506.6,443,518.8,444.4,530.4z M718.9,476.7c0,10.8-8.8,19.6-19.6,19.6H23.7
c-10.8,0-19.6-8.8-19.6-19.6v-44h714.8V476.7z M4.1,431.3V23.1c0-10.8,8.8-19.6,19.6-19.6h675.6c10.8,0,19.6,8.8,19.6,19.6v408.2
H4.1z"/>
<path fill="#CCCCCC" d="M689.5,30.9h-656c-1.1,0-2.1,0.9-2.1,2.1v369c0,1.1,0.9,2.1,2.1,2.1h656c1.1,0,2.1-0.9,2.1-2.1v-369
C691.6,31.8,690.6,30.9,689.5,30.9z M689.5,401.9h-656v-369h656V401.9z"/>
<path fill="#CCCCCC" d="M361.5,20c1.5,0,2.7-1.2,2.7-2.7c0-1.5-1.2-2.7-2.7-2.7c-1.5,0-2.7,1.2-2.7,2.7C358.8,18.8,360,20,361.5,20
z M361.5,15.9c0.8,0,1.4,0.6,1.4,1.4c0,0.8-0.6,1.4-1.4,1.4c-0.8,0-1.4-0.6-1.4-1.4C360.1,16.5,360.7,15.9,361.5,15.9z"/>
</g>
</svg>
