<svg version="1.1" id="Layer_1" xmlns="http://www.w3.org/2000/svg" xmlns:xlink="http://www.w3.org/1999/xlink" x="0px" y="0px"
viewBox="0 0 309 435" enable-background="new 0 0 309 435" xml:space="preserve">
<g id="tablet">
<path fill="#FFFFFF" d="M301.4,7.6c-3.4-3.4-8-5.3-13-5.3H19.9c-4.7,0-9.1,1.9-12.4,5.3C4.1,11,2.3,15.5,2.3,20.3v394.4
c0,9.9,8.7,18,19.4,18h265.7c5.2,0,10-1.9,13.6-5.2c3.7-3.5,5.8-8.3,5.8-13.5V20.3C306.7,15.5,304.8,10.9,301.4,7.6z"/>
<path fill="#CCCCCC" d="M301.4,7.6c-3.4-3.4-8-5.3-13-5.3H19.9c-4.7,0-9.1,1.9-12.4,5.3C4.1,11,2.3,15.5,2.3,20.3v394.4
c0,9.9,8.7,18,19.4,18h265.7c5.2,0,10-1.9,13.6-5.2c3.7-3.5,5.8-8.3,5.8-13.5V20.3C306.7,15.5,304.8,10.9,301.4,7.6z M305.3,413.9
c0,10.3-8.2,17.4-18,17.4H21.6c-9.9,0-18-7.4-18-16.6V20.3c0-9.2,7.4-16.6,16.3-16.6h268.5c9.5,0,16.9,7.4,16.9,16.6V413.9z"/>
<path fill="#CCCCCC" d="M288.4,5.7H19.9c-3.7,0-7.3,1.5-10,4.3c-2.7,2.8-4.2,6.4-4.2,10.3v394.4c0,8,7.2,14.5,15.9,14.5h265.7
c4.3,0,8.3-1.5,11.2-4.3c3-2.8,4.7-6.8,4.7-11.1V20.3c0-3.9-1.5-7.5-4.3-10.3C296.2,7.2,292.5,5.7,288.4,5.7z M301.9,413.9
c0,3.9-1.5,7.5-4.2,10.1c-2.7,2.5-6.4,3.9-10.3,3.9H21.7c-8,0-14.6-5.9-14.6-13.2V20.3c0-3.5,1.4-6.8,3.8-9.3
c2.4-2.5,5.6-3.8,9-3.8h268.5c3.7,0,7.1,1.4,9.6,3.9c2.5,2.5,3.9,5.8,3.9,9.3V413.9z"/>
<path fill="#CCCCCC" d="M285.8,40.8H23.4c-0.9,0-1.7,0.8-1.7,1.7v349.9c0,0.9,0.8,1.7,1.7,1.7h262.4c0.9,0,1.7-0.8,1.7-1.7V42.5
C287.5,41.5,286.7,40.8,285.8,40.8z M285.8,392.3H23.4V42.5h262.4V392.3z"/>
<path fill="#CCCCCC" d="M154.4,25.8c1.4,0,2.6-1.1,2.6-2.6c0-1.4-1.1-2.6-2.6-2.6c-1.4,0-2.6,1.1-2.6,2.6
C151.8,24.7,153,25.8,154.4,25.8z M154.4,21.7c0.8,0,1.5,0.7,1.5,1.5c0,0.8-0.7,1.5-1.5,1.5c-0.8,0-1.5-0.7-1.5-1.5
C152.9,22.4,153.5,21.7,154.4,21.7z"/>
<ellipse fill="#CCCCCC" cx="147.1" cy="23.3" rx="1.4" ry="1.4"/>
<path fill="#CCCCCC" d="M154.4,402.6c-5.7,0-10.3,4.6-10.3,10.3c0,0.1,0,0.2,0,0.2c0.1,5.5,4.7,10,10.2,10
c5.7,0,10.3-4.6,10.3-10.3C164.6,407.2,160,402.6,154.4,402.6z M154.4,421.8c-2.3,0-4.5-0.9-6.2-2.5c-1.7-1.6-2.6-3.8-2.7-6.1
l0-0.1c0,0,0-0.1,0-0.1c0-4.9,4-8.9,8.9-8.9c4.9,0,8.9,4,8.9,8.9C163.3,417.8,159.3,421.8,154.4,421.8z"/>
<path fill="#CCCCCC" d="M156.4,408.9h-4c-1,0-1.7,0.8-1.7,1.7v4c0,1,0.8,1.7,1.7,1.7h4c1,0,1.7-0.8,1.7-1.7v-4
C158.1,409.7,157.3,408.9,156.4,408.9z M156.7,414.7c0,0.2-0.2,0.4-0.4,0.4h-4c-0.2,0-0.4-0.2-0.4-0.4v-4c0-0.2,0.2-0.4,0.4-0.4h4
c0.2,0,0.4,0.2,0.4,0.4V414.7z"/>
</g>
</svg>