<svg version="1.1" id="Layer_1" xmlns="http://www.w3.org/2000/svg" xmlns:xlink="http://www.w3.org/1999/xlink" x="0px" y="0px"
viewBox="0 0 137.7 281" enable-background="new 0 0 137.7 281" xml:space="preserve">
<g id="iphone">
<path fill="#FFFFFF" d="M129,10.7c-3.7-3.7-8.7-5.8-14-5.8h-1.7V4.3V3.8l-0.4-0.3l-0.7-0.5L112,2.7h-0.3H92.4h-0.3l-0.2,0.1L91,3.4
l-0.5,0.3v0.6v0.7H24.5c-5.3,0-10.3,2.1-14,5.8c-3.7,3.7-5.8,8.7-5.8,14V42H4.3H3.9l-0.3,0.3l-0.5,0.5l-0.3,0.3v0.4V55v0.4l0.3,0.3
l0.5,0.5l0.3,0.3h0.4h0.3v11.3H4.3H3.9l-0.3,0.3l-0.5,0.5l-0.3,0.3v0.4v8.5v0.4l0.3,0.3l0.5,0.5l0.3,0.3h0.4h0.3v11.1H4.3H3.9
l-0.3,0.3l-0.5,0.5l-0.3,0.3v0.4v8.5v0.4l0.3,0.3l0.5,0.5l0.3,0.3h0.4h0.3v156.3c0,5.3,2.1,10.3,5.8,14c3.7,3.7,8.7,5.8,14,5.8H115
c5.3,0,10.3-2.1,14-5.8c3.7-3.7,5.8-8.7,5.8-14V24.8C134.9,19.5,132.8,14.5,129,10.7z M91.5,4.3l0.9-0.5h19.3l0.7,0.5v0.7H91.5V4.3
z M4.3,55.5L3.8,55V43.6C4,43.4,4.1,43.3,4.3,43h0.3v12.5H4.3z M4.3,78.4l-0.5-0.5v-8.5c0.1-0.1,0.3-0.3,0.5-0.5h0.3v9.6H4.3z
M4.3,101.1l-0.5-0.5v-8.5c0.1-0.1,0.3-0.3,0.5-0.5h0.3v9.6H4.3z"/>
<path fill="#CCCCCC" d="M129,10.7c-3.7-3.7-8.7-5.8-14-5.8h-1.7V4.3V3.8l-0.4-0.3l-0.7-0.5L112,2.7h-0.3H92.4h-0.3l-0.2,0.1L91,3.4
l-0.5,0.3v0.6v0.7H24.5c-5.3,0-10.3,2.1-14,5.8c-3.7,3.7-5.8,8.7-5.8,14V42H4.3H3.9l-0.3,0.3l-0.5,0.5l-0.3,0.3v0.4V55v0.4l0.3,0.3
l0.5,0.5l0.3,0.3h0.4h0.3v11.3H4.3H3.9l-0.3,0.3l-0.5,0.5l-0.3,0.3v0.4v8.5v0.4l0.3,0.3l0.5,0.5l0.3,0.3h0.4h0.3v11.1H4.3H3.9
l-0.3,0.3l-0.5,0.5l-0.3,0.3v0.4v8.5v0.4l0.3,0.3l0.5,0.5l0.3,0.3h0.4h0.3v156.3c0,5.3,2.1,10.3,5.8,14c3.7,3.7,8.7,5.8,14,5.8H115
c5.3,0,10.3-2.1,14-5.8c3.7-3.7,5.8-8.7,5.8-14V24.8C134.9,19.5,132.8,14.5,129,10.7z M91.5,4.3l0.9-0.5h19.3l0.7,0.5v0.7H91.5V4.3
z M11.5,11.7c3.5-3.5,8.1-5.4,13.1-5.4H115c4.9,0,9.6,1.9,13.1,5.4c3.5,3.5,5.4,8.1,5.4,13V29h-1.4v-4.3c0-9.4-7.7-17.1-17.1-17.1
H24.5c-9.4,0-17.1,7.6-17.1,17.1V29H6.1v-4.3C6.1,19.8,8,15.2,11.5,11.7z M133.5,31.1v221.2h-1.4V31.1H133.5z M130.8,24.7v233.7
c0,8.7-7.1,15.7-15.7,15.7H24.5c-8.7,0-15.7-7.1-15.7-15.7V24.7C8.8,16.1,15.8,9,24.5,9H115C123.7,9,130.8,16.1,130.8,24.7z
M6.1,102.1v-1v-9.6v-1V79.4v-1v-9.6v-1V56.5v-1V43v-1V31.1h1.4v221.2H6.1V102.1z M4.3,55.5L3.8,55V43.6C4,43.4,4.1,43.3,4.3,43
h0.3v12.5H4.3z M4.3,78.4l-0.5-0.5v-8.5c0.1-0.1,0.3-0.3,0.5-0.5h0.3v9.6H4.3z M4.3,101.1l-0.5-0.5v-8.5c0.1-0.1,0.3-0.3,0.5-0.5
h0.3v9.6H4.3z M128.1,271.5c-3.5,3.5-8.1,5.4-13.1,5.4H24.5c-4.9,0-9.6-1.9-13.1-5.4c-3.5-3.5-5.4-8.1-5.4-13v-4.1h1.4v4.1
c0,9.4,7.7,17.1,17.1,17.1H115c9.4,0,17.1-7.6,17.1-17.1v-4.1h1.4v4.1C133.5,263.4,131.6,268,128.1,271.5z"/>
<path fill="#CCCCCC" d="M60,31.8h18.8c1.4,0,2.6-1.1,2.6-2.6c0-1.4-1.1-2.6-2.6-2.6H60c-1.4,0-2.6,1.1-2.6,2.6
C57.5,30.6,58.6,31.8,60,31.8z M60,28h18.8c0.7,0,1.2,0.5,1.2,1.2s-0.5,1.2-1.2,1.2H60c-0.7,0-1.2-0.5-1.2-1.2S59.4,28,60,28z"/>
<path fill="#CCCCCC" d="M124.3,43.2H14.9c-0.8,0-1.4,0.6-1.4,1.4v194.1c0,0.8,0.6,1.4,1.4,1.4h109.3c0.8,0,1.4-0.6,1.4-1.4V44.6
C125.6,43.8,125,43.2,124.3,43.2z M124.3,238.6H14.9V44.6h109.3V238.6z"/>
<path fill="#CCCCCC" d="M69.7,246.2c-6.4,0-11.5,5.2-11.5,11.5c0,6.4,5.2,11.5,11.5,11.5c6.4,0,11.5-5.2,11.5-11.5
C81.2,251.3,76.1,246.2,69.7,246.2z M69.7,267.9c-5.6,0-10.2-4.6-10.2-10.2c0-5.6,4.6-10.2,10.2-10.2s10.2,4.6,10.2,10.2
C79.9,263.3,75.3,267.9,69.7,267.9z"/>
<path fill="#CCCCCC" d="M69.6,21.8c1.6,0,2.9-1.3,2.9-2.9c0-1.6-1.3-2.9-2.9-2.9c-1.6,0-2.9,1.3-2.9,2.9
C66.7,20.5,68,21.8,69.6,21.8z M69.6,17c1,0,1.9,0.8,1.9,1.9c0,1-0.8,1.9-1.9,1.9c-1,0-1.9-0.8-1.9-1.9C67.7,17.9,68.6,17,69.6,17z
"/>
<circle fill="#CCCCCC" cx="69.6" cy="18.8" r="1"/>
</g>
</svg>
